<?xml version="1.0" encoding="UTF-8"?>
<!DOCTYPE svg PUBLIC "-//W3C//DTD SVG 1.1//EN" "http://www.w3.org/Graphics/SVG/1.1/DTD/svg11.dtd">
<svg xmlns="http://www.w3.org/2000/svg" xmlns:xlink="http://www.w3.org/1999/xlink" version="1.1" width="1022px" height="677px" viewBox="-0.5 -0.5 1022 677" style="background-color: rgb(255, 255, 255);"><defs><clipPath id="mx-clip-304-184-30-30-0"><rect x="304" y="184" width="30" height="30"/></clipPath><clipPath id="mx-clip-340-184-144-30-0"><rect x="340" y="184" width="144" height="30"/></clipPath><clipPath id="mx-clip-340-214-144-30-0"><rect x="340" y="214" width="144" height="30"/></clipPath><clipPath id="mx-clip-340-244-144-30-0"><rect x="340" y="244" width="144" height="30"/></clipPath><clipPath id="mx-clip-340-274-144-30-0"><rect x="340" y="274" width="144" height="30"/></clipPath><clipPath id="mx-clip-340-304-144-30-0"><rect x="340" y="304" width="144" height="30"/></clipPath><clipPath id="mx-clip-340-334-144-30-0"><rect x="340" y="334" width="144" height="30"/></clipPath><clipPath id="mx-clip-340-364-144-30-0"><rect x="340" y="364" width="144" height="30"/></clipPath><clipPath id="mx-clip-340-394-144-30-0"><rect x="340" y="394" width="144" height="30"/></clipPath><clipPath id="mx-clip-340-424-144-30-0"><rect x="340" y="424" width="144" height="30"/></clipPath><clipPath id="mx-clip-340-454-144-30-0"><rect x="340" y="454" width="144" height="30"/></clipPath><clipPath id="mx-clip-41-466-30-30-0"><rect x="41" y="466" width="30" height="30"/></clipPath><clipPath id="mx-clip-77-466-144-30-0"><rect x="77" y="466" width="144" height="30"/></clipPath><clipPath id="mx-clip-77-496-144-30-0"><rect x="77" y="496" width="144" height="30"/></clipPath><clipPath id="mx-clip-77-526-144-30-0"><rect x="77" y="526" width="144" height="30"/></clipPath><clipPath id="mx-clip-77-556-144-30-0"><rect x="77" y="556" width="144" height="30"/></clipPath><clipPath id="mx-clip-77-586-144-30-0"><rect x="77" y="586" width="144" height="30"/></clipPath><clipPath id="mx-clip-311-556-30-30-0"><rect x="311" y="556" width="30" height="30"/></clipPath><clipPath id="mx-clip-347-556-144-30-0"><rect x="347" y="556" width="144" height="30"/></clipPath><clipPath id="mx-clip-347-586-144-30-0"><rect x="347" y="586" width="144" height="30"/></clipPath><clipPath id="mx-clip-347-616-144-30-0"><rect x="347" y="616" width="144" height="30"/></clipPath><clipPath id="mx-clip-581-256-30-30-0"><rect x="581" y="256" width="30" height="30"/></clipPath><clipPath id="mx-clip-617-256-161-30-0"><rect x="617" y="256" width="161" height="30"/></clipPath><clipPath id="mx-clip-617-286-161-30-0"><rect x="617" y="286" width="161" height="30"/></clipPath><clipPath id="mx-clip-617-316-161-30-0"><rect x="617" y="316" width="161" height="30"/></clipPath><clipPath id="mx-clip-617-346-161-30-0"><rect x="617" y="346" width="161" height="30"/></clipPath><clipPath id="mx-clip-617-376-161-30-0"><rect x="617" y="376" width="161" height="30"/></clipPath><clipPath id="mx-clip-581-406-30-30-0"><rect x="581" y="406" width="30" height="30"/></clipPath><clipPath id="mx-clip-617-406-161-30-0"><rect x="617" y="406" width="161" height="30"/></clipPath><clipPath id="mx-clip-581-436-30-30-0"><rect x="581" y="436" width="30" height="30"/></clipPath><clipPath id="mx-clip-617-436-161-30-0"><rect x="617" y="436" width="161" height="30"/></clipPath><clipPath id="mx-clip-591-106-30-30-0"><rect x="591" y="106" width="30" height="30"/></clipPath><clipPath id="mx-clip-627-106-151-30-0"><rect x="627" y="106" width="151" height="30"/></clipPath><clipPath id="mx-clip-591-136-30-30-0"><rect x="591" y="136" width="30" height="30"/></clipPath><clipPath id="mx-clip-627-136-151-30-0"><rect x="627" y="136" width="151" height="30"/></clipPath><clipPath id="mx-clip-627-166-151-30-0"><rect x="627" y="166" width="151" height="30"/></clipPath><clipPath id="mx-clip-821-96-30-30-0"><rect x="821" y="96" width="30" height="30"/></clipPath><clipPath id="mx-clip-857-96-144-30-0"><rect x="857" y="96" width="144" height="30"/></clipPath><clipPath id="mx-clip-821-126-30-30-0"><rect x="821" y="126" width="30" height="30"/></clipPath><clipPath id="mx-clip-857-126-144-30-0"><rect x="857" y="126" width="144" height="30"/></clipPath><clipPath id="mx-clip-857-156-144-30-0"><rect x="857" y="156" width="144" height="30"/></clipPath><clipPath id="mx-clip-41-46-30-30-0"><rect x="41" y="46" width="30" height="30"/></clipPath><clipPath id="mx-clip-77-46-144-30-0"><rect x="77" y="46" width="144" height="30"/></clipPath><clipPath id="mx-clip-41-76-30-30-0"><rect x="41" y="76" width="30" height="30"/></clipPath><clipPath id="mx-clip-77-76-144-30-0"><rect x="77" y="76" width="144" height="30"/></clipPath><clipPath id="mx-clip-41-106-30-30-0"><rect x="41" y="106" width="30" height="30"/></clipPath><clipPath id="mx-clip-77-106-144-30-0"><rect x="77" y="106" width="144" height="30"/></clipPath><clipPath id="mx-clip-77-136-144-30-0"><rect x="77" y="136" width="144" height="30"/></clipPath><clipPath id="mx-clip-41-236-30-30-0"><rect x="41" y="236" width="30" height="30"/></clipPath><clipPath id="mx-clip-77-236-144-30-0"><rect x="77" y="236" width="144" height="30"/></clipPath><clipPath id="mx-clip-77-266-144-30-0"><rect x="77" y="266" width="144" height="30"/></clipPath><clipPath id="mx-clip-77-296-144-30-0"><rect x="77" y="296" width="144" height="30"/></clipPath><clipPath id="mx-clip-77-326-144-30-0"><rect x="77" y="326" width="144" height="30"/></clipPath><clipPath id="mx-clip-77-356-144-30-0"><rect x="77" y="356" width="144" height="30"/></clipPath></defs><g><rect x="0" y="0" width="1021" height="676" fill="rgb(255, 255, 255)" stroke="none" pointer-events="all"/><path d="M 304 184 L 304 154 L 484 154 L 484 184" fill="rgb(255, 255, 255)" stroke="rgb(0, 0, 0)" stroke-miterlimit="10" pointer-events="all"/><path d="M 304 184 L 304 494 L 484 494 L 484 184" fill="none" stroke="rgb(0, 0, 0)" stroke-miterlimit="10" pointer-events="none"/><path d="M 304 184 L 484 184" fill="none" stroke="rgb(0, 0, 0)" stroke-miterlimit="10" pointer-events="none"/><path d="M 334 184 L 334 214 L 334 244 L 334 274 L 334 304 L 334 334 L 334 364 L 334 394 L 334 424 L 334 454 L 334 484" fill="none" stroke="rgb(0, 0, 0)" stroke-miterlimit="10" pointer-events="none"/><g fill="rgb(0, 0, 0)" font-family="Helvetica" font-weight="bold" pointer-events="none" text-anchor="middle" font-size="12px"><text x="393.5" y="173.5">Users</text></g><path d="M 304 184 M 484 184 M 484 214 L 304 214" fill="none" stroke="rgb(0, 0, 0)" stroke-linecap="square" stroke-miterlimit="10" pointer-events="none"/><path d="M 304 184 M 334 184 M 334 214 M 304 214" fill="none" stroke="rgb(0, 0, 0)" stroke-linecap="square" stroke-miterlimit="10" pointer-events="none"/><g fill="rgb(0, 0, 0)" font-family="Helvetica" font-weight="bold" pointer-events="none" clip-path="url(#mx-clip-304-184-30-30-0)" text-anchor="middle" font-size="12px"><text x="318.5" y="203.5">PK</text></g><path d="M 334 184 M 484 184 M 484 214 M 334 214" fill="none" stroke="rgb(0, 0, 0)" stroke-linecap="square" stroke-miterlimit="10" pointer-events="none"/><g fill="rgb(0, 0, 0)" font-family="Helvetica" font-weight="bold" text-decoration="underline" pointer-events="none" clip-path="url(#mx-clip-340-184-144-30-0)" font-size="12px"><text x="341.5" y="203.5">ID</text></g><path d="M 304 214 M 334 214 M 334 244 M 304 244" fill="none" stroke="rgb(0, 0, 0)" stroke-linecap="square" stroke-miterlimit="10" pointer-events="none"/><path d="M 334 214 M 484 214 M 484 244 M 334 244" fill="none" stroke="rgb(0, 0, 0)" stroke-linecap="square" stroke-miterlimit="10" pointer-events="none"/><g fill="rgb(0, 0, 0)" font-family="Helvetica" pointer-events="none" clip-path="url(#mx-clip-340-214-144-30-0)" font-size="12px"><text x="341.5" y="233.5">Email</text></g><path d="M 304 244 M 334 244 M 334 274 M 304 274" fill="none" stroke="rgb(0, 0, 0)" stroke-linecap="square" stroke-miterlimit="10" pointer-events="none"/><path d="M 334 244 M 484 244 M 484 274 M 334 274" fill="none" stroke="rgb(0, 0, 0)" stroke-linecap="square" stroke-miterlimit="10" pointer-events="none"/><g fill="rgb(0, 0, 0)" font-family="Helvetica" pointer-events="none" clip-path="url(#mx-clip-340-244-144-30-0)" font-size="12px"><text x="341.5" y="263.5">Email</text></g><path d="M 304 274 M 334 274 M 334 304 M 304 304" fill="none" stroke="rgb(0, 0, 0)" stroke-linecap="square" stroke-miterlimit="10" pointer-events="none"/><path d="M 334 274 M 484 274 M 484 304 M 334 304" fill="none" stroke="rgb(0, 0, 0)" stroke-linecap="square" stroke-miterlimit="10" pointer-events="none"/><g fill="rgb(0, 0, 0)" font-family="Helvetica" pointer-events="none" clip-path="url(#mx-clip-340-274-144-30-0)" font-size="12px"><text x="341.5" y="293.5">Name</text></g><path d="M 304 304 M 334 304 M 334 334 M 304 334" fill="none" stroke="rgb(0, 0, 0)" stroke-linecap="square" stroke-miterlimit="10" pointer-events="none"/><path d="M 334 304 M 484 304 M 484 334 M 334 334" fill="none" stroke="rgb(0, 0, 0)" stroke-linecap="square" stroke-miterlimit="10" pointer-events="none"/><g fill="rgb(0, 0, 0)" font-family="Helvetica" pointer-events="none" clip-path="url(#mx-clip-340-304-144-30-0)" font-size="12px"><text x="341.5" y="323.5">Password</text></g><path d="M 304 334 M 334 334 M 334 364 M 304 364" fill="none" stroke="rgb(0, 0, 0)" stroke-linecap="square" stroke-miterlimit="10" pointer-events="none"/><path d="M 334 334 M 484 334 M 484 364 M 334 364" fill="none" stroke="rgb(0, 0, 0)" stroke-linecap="square" stroke-miterlimit="10" pointer-events="none"/><g fill="rgb(0, 0, 0)" font-family="Helvetica" pointer-events="none" clip-path="url(#mx-clip-340-334-144-30-0)" font-size="12px"><text x="341.5" y="353.5">Role</text></g><path d="M 304 364 M 334 364 M 334 394 M 304 394" fill="none" stroke="rgb(0, 0, 0)" stroke-linecap="square" stroke-miterlimit="10" pointer-events="none"/><path d="M 334 364 M 484 364 M 484 394 M 334 394" fill="none" stroke="rgb(0, 0, 0)" stroke-linecap="square" stroke-miterlimit="10" pointer-events="none"/><g fill="rgb(0, 0, 0)" font-family="Helvetica" pointer-events="none" clip-path="url(#mx-clip-340-364-144-30-0)" font-size="12px"><text x="341.5" y="383.5">Tags</text></g><path d="M 304 394 M 334 394 M 334 424 M 304 424" fill="none" stroke="rgb(0, 0, 0)" stroke-linecap="square" stroke-miterlimit="10" pointer-events="none"/><path d="M 334 394 M 484 394 M 484 424 M 334 424" fill="none" stroke="rgb(0, 0, 0)" stroke-linecap="square" stroke-miterlimit="10" pointer-events="none"/><g fill="rgb(0, 0, 0)" font-family="Helvetica" pointer-events="none" clip-path="url(#mx-clip-340-394-144-30-0)" font-size="12px"><text x="341.5" y="413.5">Subject</text></g><path d="M 304 424 M 334 424 M 334 454 M 304 454" fill="none" stroke="rgb(0, 0, 0)" stroke-linecap="square" stroke-miterlimit="10" pointer-events="none"/><path d="M 334 424 M 484 424 M 484 454 M 334 454" fill="none" stroke="rgb(0, 0, 0)" stroke-linecap="square" stroke-miterlimit="10" pointer-events="none"/><g fill="rgb(0, 0, 0)" font-family="Helvetica" pointer-events="none" clip-path="url(#mx-clip-340-424-144-30-0)" font-size="12px"><text x="341.5" y="443.5">Major (NULLABLE)</text></g><path d="M 304 454 M 334 454 M 334 484 M 304 484" fill="none" stroke="rgb(0, 0, 0)" stroke-linecap="square" stroke-miterlimit="10" pointer-events="none"/><path d="M 334 454 M 484 454 M 484 484 M 334 484" fill="none" stroke="rgb(0, 0, 0)" stroke-linecap="square" stroke-miterlimit="10" pointer-events="none"/><g fill="rgb(0, 0, 0)" font-family="Helvetica" pointer-events="none" clip-path="url(#mx-clip-340-454-144-30-0)" font-size="12px"><text x="341.5" y="473.5">Status</text></g><path d="M 41 466 L 41 436 L 221 436 L 221 466" fill="rgb(255, 255, 255)" stroke="rgb(0, 0, 0)" stroke-miterlimit="10" pointer-events="none"/><path d="M 41 466 L 41 626 L 221 626 L 221 466" fill="none" stroke="rgb(0, 0, 0)" stroke-miterlimit="10" pointer-events="none"/><path d="M 41 466 L 221 466" fill="none" stroke="rgb(0, 0, 0)" stroke-miterlimit="10" pointer-events="none"/><path d="M 71 466 L 71 496 L 71 526 L 71 556 L 71 586 L 71 616" fill="none" stroke="rgb(0, 0, 0)" stroke-miterlimit="10" pointer-events="none"/><g fill="rgb(0, 0, 0)" font-family="Helvetica" font-weight="bold" pointer-events="none" text-anchor="middle" font-size="12px"><text x="130.5" y="455.5">Subject</text></g><path d="M 41 466 M 221 466 M 221 496 L 41 496" fill="none" stroke="rgb(0, 0, 0)" stroke-linecap="square" stroke-miterlimit="10" pointer-events="none"/><path d="M 41 466 M 71 466 M 71 496 M 41 496" fill="none" stroke="rgb(0, 0, 0)" stroke-linecap="square" stroke-miterlimit="10" pointer-events="none"/><g fill="rgb(0, 0, 0)" font-family="Helvetica" font-weight="bold" pointer-events="none" clip-path="url(#mx-clip-41-466-30-30-0)" text-anchor="middle" font-size="12px"><text x="55.5" y="485.5">PK</text></g><path d="M 71 466 M 221 466 M 221 496 M 71 496" fill="none" stroke="rgb(0, 0, 0)" stroke-linecap="square" stroke-miterlimit="10" pointer-events="none"/><g fill="rgb(0, 0, 0)" font-family="Helvetica" font-weight="bold" text-decoration="underline" pointer-events="none" clip-path="url(#mx-clip-77-466-144-30-0)" font-size="12px"><text x="78.5" y="485.5">ID</text></g><path d="M 41 496 M 71 496 M 71 526 M 41 526" fill="none" stroke="rgb(0, 0, 0)" stroke-linecap="square" stroke-miterlimit="10" pointer-events="none"/><path d="M 71 496 M 221 496 M 221 526 M 71 526" fill="none" stroke="rgb(0, 0, 0)" stroke-linecap="square" stroke-miterlimit="10" pointer-events="none"/><g fill="rgb(0, 0, 0)" font-family="Helvetica" pointer-events="none" clip-path="url(#mx-clip-77-496-144-30-0)" font-size="12px"><text x="78.5" y="515.5">Code</text></g><path d="M 41 526 M 71 526 M 71 556 M 41 556" fill="none" stroke="rgb(0, 0, 0)" stroke-linecap="square" stroke-miterlimit="10" pointer-events="none"/><path d="M 71 526 M 221 526 M 221 556 M 71 556" fill="none" stroke="rgb(0, 0, 0)" stroke-linecap="square" stroke-miterlimit="10" pointer-events="none"/><g fill="rgb(0, 0, 0)" font-family="Helvetica" pointer-events="none" clip-path="url(#mx-clip-77-526-144-30-0)" font-size="12px"><text x="78.5" y="545.5">Name</text></g><path d="M 41 556 M 71 556 M 71 586 M 41 586" fill="none" stroke="rgb(0, 0, 0)" stroke-linecap="square" stroke-miterlimit="10" pointer-events="none"/><path d="M 71 556 M 221 556 M 221 586 M 71 586" fill="none" stroke="rgb(0, 0, 0)" stroke-linecap="square" stroke-miterlimit="10" pointer-events="none"/><g fill="rgb(0, 0, 0)" font-family="Helvetica" pointer-events="none" clip-path="url(#mx-clip-77-556-144-30-0)" font-size="12px"><text x="78.5" y="575.5">Teacher</text></g><path d="M 41 586 M 71 586 M 71 616 M 41 616" fill="none" stroke="rgb(0, 0, 0)" stroke-linecap="square" stroke-miterlimit="10" pointer-events="none"/><path d="M 71 586 M 221 586 M 221 616 M 71 616" fill="none" stroke="rgb(0, 0, 0)" stroke-linecap="square" stroke-miterlimit="10" pointer-events="none"/><g fill="rgb(0, 0, 0)" font-family="Helvetica" pointer-events="none" clip-path="url(#mx-clip-77-586-144-30-0)" font-size="12px"><text x="78.5" y="605.5">MajorID</text></g><path d="M 311 556 L 311 526 L 491 526 L 491 556" fill="rgb(255, 255, 255)" stroke="rgb(0, 0, 0)" stroke-miterlimit="10" pointer-events="none"/><path d="M 311 556 L 311 656 L 491 656 L 491 556" fill="none" stroke="rgb(0, 0, 0)" stroke-miterlimit="10" pointer-events="none"/><path d="M 311 556 L 491 556" fill="none" stroke="rgb(0, 0, 0)" stroke-miterlimit="10" pointer-events="none"/><path d="M 341 556 L 341 586 L 341 616 L 341 646" fill="none" stroke="rgb(0, 0, 0)" stroke-miterlimit="10" pointer-events="none"/><g fill="rgb(0, 0, 0)" font-family="Helvetica" font-weight="bold" pointer-events="none" text-anchor="middle" font-size="12px"><text x="400.5" y="545.5">Tag</text></g><path d="M 311 556 M 491 556 M 491 586 L 311 586" fill="none" stroke="rgb(0, 0, 0)" stroke-linecap="square" stroke-miterlimit="10" pointer-events="none"/><path d="M 311 556 M 341 556 M 341 586 M 311 586" fill="none" stroke="rgb(0, 0, 0)" stroke-linecap="square" stroke-miterlimit="10" pointer-events="none"/><g fill="rgb(0, 0, 0)" font-family="Helvetica" font-weight="bold" pointer-events="none" clip-path="url(#mx-clip-311-556-30-30-0)" text-anchor="middle" font-size="12px"><text x="325.5" y="575.5">PK</text></g><path d="M 341 556 M 491 556 M 491 586 M 341 586" fill="none" stroke="rgb(0, 0, 0)" stroke-linecap="square" stroke-miterlimit="10" pointer-events="none"/><g fill="rgb(0, 0, 0)" font-family="Helvetica" font-weight="bold" text-decoration="underline" pointer-events="none" clip-path="url(#mx-clip-347-556-144-30-0)" font-size="12px"><text x="348.5" y="575.5">ID</text></g><path d="M 311 586 M 341 586 M 341 616 M 311 616" fill="none" stroke="rgb(0, 0, 0)" stroke-linecap="square" stroke-miterlimit="10" pointer-events="none"/><path d="M 341 586 M 491 586 M 491 616 M 341 616" fill="none" stroke="rgb(0, 0, 0)" stroke-linecap="square" stroke-miterlimit="10" pointer-events="none"/><g fill="rgb(0, 0, 0)" font-family="Helvetica" pointer-events="none" clip-path="url(#mx-clip-347-586-144-30-0)" font-size="12px"><text x="348.5" y="605.5">Name</text></g><path d="M 311 616 M 341 616 M 341 646 M 311 646" fill="none" stroke="rgb(0, 0, 0)" stroke-linecap="square" stroke-miterlimit="10" pointer-events="none"/><path d="M 341 616 M 491 616 M 491 646 M 341 646" fill="none" stroke="rgb(0, 0, 0)" stroke-linecap="square" stroke-miterlimit="10" pointer-events="none"/><g fill="rgb(0, 0, 0)" font-family="Helvetica" pointer-events="none" clip-path="url(#mx-clip-347-616-144-30-0)" font-size="12px"><text x="348.5" y="635.5">Value</text></g><path d="M 581 256 L 581 226 L 778 226 L 778 256" fill="rgb(255, 255, 255)" stroke="rgb(0, 0, 0)" stroke-miterlimit="10" pointer-events="none"/><path d="M 581 256 L 581 476 L 778 476 L 778 256" fill="none" stroke="rgb(0, 0, 0)" stroke-miterlimit="10" pointer-events="none"/><path d="M 581 256 L 778 256" fill="none" stroke="rgb(0, 0, 0)" stroke-miterlimit="10" pointer-events="none"/><path d="M 611 256 L 611 286 L 611 316 L 611 346 L 611 376 L 611 406 L 611 436 L 611 466" fill="none" stroke="rgb(0, 0, 0)" stroke-miterlimit="10" pointer-events="none"/><g fill="rgb(0, 0, 0)" font-family="Helvetica" font-weight="bold" pointer-events="none" text-anchor="middle" font-size="12px"><text x="679" y="245.5">Questionnaire</text></g><path d="M 581 256 M 778 256 M 778 286 L 581 286" fill="none" stroke="rgb(0, 0, 0)" stroke-linecap="square" stroke-miterlimit="10" pointer-events="none"/><path d="M 581 256 M 611 256 M 611 286 M 581 286" fill="none" stroke="rgb(0, 0, 0)" stroke-linecap="square" stroke-miterlimit="10" pointer-events="none"/><g fill="rgb(0, 0, 0)" font-family="Helvetica" font-weight="bold" pointer-events="none" clip-path="url(#mx-clip-581-256-30-30-0)" text-anchor="middle" font-size="12px"><text x="595.5" y="275.5">PK</text></g><path d="M 611 256 M 778 256 M 778 286 M 611 286" fill="none" stroke="rgb(0, 0, 0)" stroke-linecap="square" stroke-miterlimit="10" pointer-events="none"/><g fill="rgb(0, 0, 0)" font-family="Helvetica" font-weight="bold" text-decoration="underline" pointer-events="none" clip-path="url(#mx-clip-617-256-161-30-0)" font-size="12px"><text x="618.5" y="275.5">ID</text></g><path d="M 581 286 M 611 286 M 611 316 M 581 316" fill="none" stroke="rgb(0, 0, 0)" stroke-linecap="square" stroke-miterlimit="10" pointer-events="none"/><path d="M 611 286 M 778 286 M 778 316 M 611 316" fill="none" stroke="rgb(0, 0, 0)" stroke-linecap="square" stroke-miterlimit="10" pointer-events="none"/><g fill="rgb(0, 0, 0)" font-family="Helvetica" pointer-events="none" clip-path="url(#mx-clip-617-286-161-30-0)" font-size="12px"><text x="618.5" y="305.5">Title</text></g><path d="M 581 316 M 611 316 M 611 346 M 581 346" fill="none" stroke="rgb(0, 0, 0)" stroke-linecap="square" stroke-miterlimit="10" pointer-events="none"/><path d="M 611 316 M 778 316 M 778 346 M 611 346" fill="none" stroke="rgb(0, 0, 0)" stroke-linecap="square" stroke-miterlimit="10" pointer-events="none"/><g fill="rgb(0, 0, 0)" font-family="Helvetica" pointer-events="none" clip-path="url(#mx-clip-617-316-161-30-0)" font-size="12px"><text x="618.5" y="335.5">Description</text></g><path d="M 581 346 M 611 346 M 611 376 M 581 376" fill="none" stroke="rgb(0, 0, 0)" stroke-linecap="square" stroke-miterlimit="10" pointer-events="none"/><path d="M 611 346 M 778 346 M 778 376 M 611 376" fill="none" stroke="rgb(0, 0, 0)" stroke-linecap="square" stroke-miterlimit="10" pointer-events="none"/><g fill="rgb(0, 0, 0)" font-family="Helvetica" pointer-events="none" clip-path="url(#mx-clip-617-346-161-30-0)" font-size="12px"><text x="618.5" y="365.5">Tags</text></g><path d="M 581 376 M 611 376 M 611 406 M 581 406" fill="none" stroke="rgb(0, 0, 0)" stroke-linecap="square" stroke-miterlimit="10" pointer-events="none"/><path d="M 611 376 M 778 376 M 778 406 M 611 406" fill="none" stroke="rgb(0, 0, 0)" stroke-linecap="square" stroke-miterlimit="10" pointer-events="none"/><g fill="rgb(0, 0, 0)" font-family="Helvetica" pointer-events="none" clip-path="url(#mx-clip-617-376-161-30-0)" font-size="12px"><text x="618.5" y="395.5">Type (Poll, Evaluate, Survey)</text></g><path d="M 581 406 M 611 406 M 611 436 M 581 436" fill="none" stroke="rgb(0, 0, 0)" stroke-linecap="square" stroke-miterlimit="10" pointer-events="none"/><g fill="rgb(0, 0, 0)" font-family="Helvetica" pointer-events="none" clip-path="url(#mx-clip-581-406-30-30-0)" text-anchor="middle" font-size="12px"><text x="595.5" y="425.5">FK</text></g><path d="M 611 406 M 778 406 M 778 436 M 611 436" fill="none" stroke="rgb(0, 0, 0)" stroke-linecap="square" stroke-miterlimit="10" pointer-events="none"/><g fill="rgb(0, 0, 0)" font-family="Helvetica" pointer-events="none" clip-path="url(#mx-clip-617-406-161-30-0)" font-size="12px"><text x="618.5" y="425.5">CompletedBy</text></g><path d="M 581 436 M 611 436 M 611 466 M 581 466" fill="none" stroke="rgb(0, 0, 0)" stroke-linecap="square" stroke-miterlimit="10" pointer-events="none"/><g fill="rgb(0, 0, 0)" font-family="Helvetica" pointer-events="none" clip-path="url(#mx-clip-581-436-30-30-0)" text-anchor="middle" font-size="12px"><text x="595.5" y="455.5">FK</text></g><path d="M 611 436 M 778 436 M 778 466 M 611 466" fill="none" stroke="rgb(0, 0, 0)" stroke-linecap="square" stroke-miterlimit="10" pointer-events="none"/><g fill="rgb(0, 0, 0)" font-family="Helvetica" pointer-events="none" clip-path="url(#mx-clip-617-436-161-30-0)" font-size="12px"><text x="618.5" y="455.5">CreatedBy</text></g><path d="M 591 106 L 591 76 L 778 76 L 778 106" fill="rgb(255, 255, 255)" stroke="rgb(0, 0, 0)" stroke-miterlimit="10" pointer-events="none"/><path d="M 591 106 L 591 206 L 778 206 L 778 106" fill="none" stroke="rgb(0, 0, 0)" stroke-miterlimit="10" pointer-events="none"/><path d="M 591 106 L 778 106" fill="none" stroke="rgb(0, 0, 0)" stroke-miterlimit="10" pointer-events="none"/><path d="M 621 106 L 621 136 L 621 166 L 621 196" fill="none" stroke="rgb(0, 0, 0)" stroke-miterlimit="10" pointer-events="none"/><g fill="rgb(0, 0, 0)" font-family="Helvetica" font-weight="bold" pointer-events="none" text-anchor="middle" font-size="12px"><text x="684" y="95.5">Question</text></g><path d="M 591 106 M 778 106 M 778 136 L 591 136" fill="none" stroke="rgb(0, 0, 0)" stroke-linecap="square" stroke-miterlimit="10" pointer-events="none"/><path d="M 591 106 M 621 106 M 621 136 M 591 136" fill="none" stroke="rgb(0, 0, 0)" stroke-linecap="square" stroke-miterlimit="10" pointer-events="none"/><g fill="rgb(0, 0, 0)" font-family="Helvetica" font-weight="bold" pointer-events="none" clip-path="url(#mx-clip-591-106-30-30-0)" text-anchor="middle" font-size="12px"><text x="605.5" y="125.5">PK</text></g><path d="M 621 106 M 778 106 M 778 136 M 621 136" fill="none" stroke="rgb(0, 0, 0)" stroke-linecap="square" stroke-miterlimit="10" pointer-events="none"/><g fill="rgb(0, 0, 0)" font-family="Helvetica" font-weight="bold" text-decoration="underline" pointer-events="none" clip-path="url(#mx-clip-627-106-151-30-0)" font-size="12px"><text x="628.5" y="125.5">ID</text></g><path d="M 591 136 M 621 136 M 621 166 M 591 166" fill="none" stroke="rgb(0, 0, 0)" stroke-linecap="square" stroke-miterlimit="10" pointer-events="none"/><g fill="rgb(0, 0, 0)" font-family="Helvetica" pointer-events="none" clip-path="url(#mx-clip-591-136-30-30-0)" text-anchor="middle" font-size="12px"><text x="605.5" y="155.5">FK</text></g><path d="M 621 136 M 778 136 M 778 166 M 621 166" fill="none" stroke="rgb(0, 0, 0)" stroke-linecap="square" stroke-miterlimit="10" pointer-events="none"/><g fill="rgb(0, 0, 0)" font-family="Helvetica" pointer-events="none" clip-path="url(#mx-clip-627-136-151-30-0)" font-size="12px"><text x="628.5" y="155.5">QuestionnaireID</text></g><path d="M 591 166 M 621 166 M 621 196 M 591 196" fill="none" stroke="rgb(0, 0, 0)" stroke-linecap="square" stroke-miterlimit="10" pointer-events="none"/><path d="M 621 166 M 778 166 M 778 196 M 621 196" fill="none" stroke="rgb(0, 0, 0)" stroke-linecap="square" stroke-miterlimit="10" pointer-events="none"/><g fill="rgb(0, 0, 0)" font-family="Helvetica" pointer-events="none" clip-path="url(#mx-clip-627-166-151-30-0)" font-size="12px"><text x="628.5" y="185.5">Question</text></g><path d="M 821 96 L 821 66 L 1001 66 L 1001 96" fill="rgb(255, 255, 255)" stroke="rgb(0, 0, 0)" stroke-miterlimit="10" pointer-events="none"/><path d="M 821 96 L 821 196 L 1001 196 L 1001 96" fill="none" stroke="rgb(0, 0, 0)" stroke-miterlimit="10" pointer-events="none"/><path d="M 821 96 L 1001 96" fill="none" stroke="rgb(0, 0, 0)" stroke-miterlimit="10" pointer-events="none"/><path d="M 851 96 L 851 126 L 851 156 L 851 186" fill="none" stroke="rgb(0, 0, 0)" stroke-miterlimit="10" pointer-events="none"/><g fill="rgb(0, 0, 0)" font-family="Helvetica" font-weight="bold" pointer-events="none" text-anchor="middle" font-size="12px"><text x="910.5" y="85.5">AnswerOption</text></g><path d="M 821 96 M 1001 96 M 1001 126 L 821 126" fill="none" stroke="rgb(0, 0, 0)" stroke-linecap="square" stroke-miterlimit="10" pointer-events="none"/><path d="M 821 96 M 851 96 M 851 126 M 821 126" fill="none" stroke="rgb(0, 0, 0)" stroke-linecap="square" stroke-miterlimit="10" pointer-events="none"/><g fill="rgb(0, 0, 0)" font-family="Helvetica" font-weight="bold" pointer-events="none" clip-path="url(#mx-clip-821-96-30-30-0)" text-anchor="middle" font-size="12px"><text x="835.5" y="115.5">PK</text></g><path d="M 851 96 M 1001 96 M 1001 126 M 851 126" fill="none" stroke="rgb(0, 0, 0)" stroke-linecap="square" stroke-miterlimit="10" pointer-events="none"/><g fill="rgb(0, 0, 0)" font-family="Helvetica" font-weight="bold" text-decoration="underline" pointer-events="none" clip-path="url(#mx-clip-857-96-144-30-0)" font-size="12px"><text x="858.5" y="115.5">ID</text></g><path d="M 821 126 M 851 126 M 851 156 M 821 156" fill="none" stroke="rgb(0, 0, 0)" stroke-linecap="square" stroke-miterlimit="10" pointer-events="none"/><g fill="rgb(0, 0, 0)" font-family="Helvetica" pointer-events="none" clip-path="url(#mx-clip-821-126-30-30-0)" text-anchor="middle" font-size="12px"><text x="835.5" y="145.5">FK</text></g><path d="M 851 126 M 1001 126 M 1001 156 M 851 156" fill="none" stroke="rgb(0, 0, 0)" stroke-linecap="square" stroke-miterlimit="10" pointer-events="none"/><g fill="rgb(0, 0, 0)" font-family="Helvetica" pointer-events="none" clip-path="url(#mx-clip-857-126-144-30-0)" font-size="12px"><text x="858.5" y="145.5">QuestionID</text></g><path d="M 821 156 M 851 156 M 851 186 M 821 186" fill="none" stroke="rgb(0, 0, 0)" stroke-linecap="square" stroke-miterlimit="10" pointer-events="none"/><path d="M 851 156 M 1001 156 M 1001 186 M 851 186" fill="none" stroke="rgb(0, 0, 0)" stroke-linecap="square" stroke-miterlimit="10" pointer-events="none"/><g fill="rgb(0, 0, 0)" font-family="Helvetica" pointer-events="none" clip-path="url(#mx-clip-857-156-144-30-0)" font-size="12px"><text x="858.5" y="175.5">Answer</text></g><path d="M 221 96.08 L 501 96.08 L 501 151 L 591 151" fill="none" stroke="rgb(0, 0, 0)" stroke-miterlimit="10" pointer-events="none"/><path d="M 225 92.08 L 225 100.08 M 229 92.08 L 229 100.08" fill="none" stroke="rgb(0, 0, 0)" stroke-miterlimit="10" pointer-events="none"/><path d="M 591 147 L 583 151 L 591 155" fill="none" stroke="rgb(0, 0, 0)" stroke-miterlimit="10" pointer-events="none"/><path d="M 41 46 L 41 16 L 221 16 L 221 46" fill="rgb(255, 255, 255)" stroke="rgb(0, 0, 0)" stroke-miterlimit="10" pointer-events="none"/><path d="M 41 46 L 41 176 L 221 176 L 221 46" fill="none" stroke="rgb(0, 0, 0)" stroke-miterlimit="10" pointer-events="none"/><path d="M 41 46 L 221 46" fill="none" stroke="rgb(0, 0, 0)" stroke-miterlimit="10" pointer-events="none"/><path d="M 71 46 L 71 76 L 71 106 L 71 136 L 71 166" fill="none" stroke="rgb(0, 0, 0)" stroke-miterlimit="10" pointer-events="none"/><g fill="rgb(0, 0, 0)" font-family="Helvetica" font-weight="bold" pointer-events="none" text-anchor="middle" font-size="12px"><text x="130.5" y="35.5">UserAnswer</text></g><path d="M 41 46 M 221 46 M 221 76 L 41 76" fill="none" stroke="rgb(0, 0, 0)" stroke-linecap="square" stroke-miterlimit="10" pointer-events="none"/><path d="M 41 46 M 71 46 M 71 76 M 41 76" fill="none" stroke="rgb(0, 0, 0)" stroke-linecap="square" stroke-miterlimit="10" pointer-events="none"/><g fill="rgb(0, 0, 0)" font-family="Helvetica" font-weight="bold" pointer-events="none" clip-path="url(#mx-clip-41-46-30-30-0)" text-anchor="middle" font-size="12px"><text x="55.5" y="65.5">PK</text></g><path d="M 71 46 M 221 46 M 221 76 M 71 76" fill="none" stroke="rgb(0, 0, 0)" stroke-linecap="square" stroke-miterlimit="10" pointer-events="none"/><g fill="rgb(0, 0, 0)" font-family="Helvetica" font-weight="bold" text-decoration="underline" pointer-events="none" clip-path="url(#mx-clip-77-46-144-30-0)" font-size="12px"><text x="78.5" y="65.5">ID</text></g><path d="M 41 76 M 71 76 M 71 106 M 41 106" fill="none" stroke="rgb(0, 0, 0)" stroke-linecap="square" stroke-miterlimit="10" pointer-events="none"/><g fill="rgb(0, 0, 0)" font-family="Helvetica" pointer-events="none" clip-path="url(#mx-clip-41-76-30-30-0)" text-anchor="middle" font-size="12px"><text x="55.5" y="95.5">FK</text></g><path d="M 71 76 M 221 76 M 221 106 M 71 106" fill="none" stroke="rgb(0, 0, 0)" stroke-linecap="square" stroke-miterlimit="10" pointer-events="none"/><g fill="rgb(0, 0, 0)" font-family="Helvetica" pointer-events="none" clip-path="url(#mx-clip-77-76-144-30-0)" font-size="12px"><text x="78.5" y="95.5">QuestionID</text></g><path d="M 41 106 M 71 106 M 71 136 M 41 136" fill="none" stroke="rgb(0, 0, 0)" stroke-linecap="square" stroke-miterlimit="10" pointer-events="none"/><g fill="rgb(0, 0, 0)" font-family="Helvetica" pointer-events="none" clip-path="url(#mx-clip-41-106-30-30-0)" text-anchor="middle" font-size="12px"><text x="55.5" y="125.5">FK</text></g><path d="M 71 106 M 221 106 M 221 136 M 71 136" fill="none" stroke="rgb(0, 0, 0)" stroke-linecap="square" stroke-miterlimit="10" pointer-events="none"/><g fill="rgb(0, 0, 0)" font-family="Helvetica" pointer-events="none" clip-path="url(#mx-clip-77-106-144-30-0)" font-size="12px"><text x="78.5" y="125.5">UserID</text></g><path d="M 41 136 M 71 136 M 71 166 M 41 166" fill="none" stroke="rgb(0, 0, 0)" stroke-linecap="square" stroke-miterlimit="10" pointer-events="none"/><path d="M 71 136 M 221 136 M 221 166 M 71 166" fill="none" stroke="rgb(0, 0, 0)" stroke-linecap="square" stroke-miterlimit="10" pointer-events="none"/><g fill="rgb(0, 0, 0)" font-family="Helvetica" pointer-events="none" clip-path="url(#mx-clip-77-136-144-30-0)" font-size="12px"><text x="78.5" y="155.5">Answer</text></g><path d="M 41 236 L 41 206 L 221 206 L 221 236" fill="rgb(255, 255, 255)" stroke="rgb(0, 0, 0)" stroke-miterlimit="10" pointer-events="none"/><path d="M 41 236 L 41 396 L 221 396 L 221 236" fill="none" stroke="rgb(0, 0, 0)" stroke-miterlimit="10" pointer-events="none"/><path d="M 41 236 L 221 236" fill="none" stroke="rgb(0, 0, 0)" stroke-miterlimit="10" pointer-events="none"/><path d="M 71 236 L 71 266 L 71 296 L 71 326 L 71 356 L 71 386" fill="none" stroke="rgb(0, 0, 0)" stroke-miterlimit="10" pointer-events="none"/><g fill="rgb(0, 0, 0)" font-family="Helvetica" font-weight="bold" pointer-events="none" text-anchor="middle" font-size="12px"><text x="130.5" y="225.5">EvaluateTeacher</text></g><path d="M 41 236 M 221 236 M 221 266 L 41 266" fill="none" stroke="rgb(0, 0, 0)" stroke-linecap="square" stroke-miterlimit="10" pointer-events="none"/><path d="M 41 236 M 71 236 M 71 266 M 41 266" fill="none" stroke="rgb(0, 0, 0)" stroke-linecap="square" stroke-miterlimit="10" pointer-events="none"/><g fill="rgb(0, 0, 0)" font-family="Helvetica" font-weight="bold" pointer-events="none" clip-path="url(#mx-clip-41-236-30-30-0)" text-anchor="middle" font-size="12px"><text x="55.5" y="255.5">PK</text></g><path d="M 71 236 M 221 236 M 221 266 M 71 266" fill="none" stroke="rgb(0, 0, 0)" stroke-linecap="square" stroke-miterlimit="10" pointer-events="none"/><g fill="rgb(0, 0, 0)" font-family="Helvetica" font-weight="bold" text-decoration="underline" pointer-events="none" clip-path="url(#mx-clip-77-236-144-30-0)" font-size="12px"><text x="78.5" y="255.5">ID</text></g><path d="M 41 266 M 71 266 M 71 296 M 41 296" fill="none" stroke="rgb(0, 0, 0)" stroke-linecap="square" stroke-miterlimit="10" pointer-events="none"/><path d="M 71 266 M 221 266 M 221 296 M 71 296" fill="none" stroke="rgb(0, 0, 0)" stroke-linecap="square" stroke-miterlimit="10" pointer-events="none"/><g fill="rgb(0, 0, 0)" font-family="Helvetica" pointer-events="none" clip-path="url(#mx-clip-77-266-144-30-0)" font-size="12px"><text x="78.5" y="285.5">TeacherID</text></g><path d="M 41 296 M 71 296 M 71 326 M 41 326" fill="none" stroke="rgb(0, 0, 0)" stroke-linecap="square" stroke-miterlimit="10" pointer-events="none"/><path d="M 71 296 M 221 296 M 221 326 M 71 326" fill="none" stroke="rgb(0, 0, 0)" stroke-linecap="square" stroke-miterlimit="10" pointer-events="none"/><g fill="rgb(0, 0, 0)" font-family="Helvetica" pointer-events="none" clip-path="url(#mx-clip-77-296-144-30-0)" font-size="12px"><text x="78.5" y="315.5">UserAnswerID</text></g><path d="M 41 326 M 71 326 M 71 356 M 41 356" fill="none" stroke="rgb(0, 0, 0)" stroke-linecap="square" stroke-miterlimit="10" pointer-events="none"/><path d="M 71 326 M 221 326 M 221 356 M 71 356" fill="none" stroke="rgb(0, 0, 0)" stroke-linecap="square" stroke-miterlimit="10" pointer-events="none"/><g fill="rgb(0, 0, 0)" font-family="Helvetica" pointer-events="none" clip-path="url(#mx-clip-77-326-144-30-0)" font-size="12px"><text x="78.5" y="345.5">SubjectID</text></g><path d="M 41 356 M 71 356 M 71 386 M 41 386" fill="none" stroke="rgb(0, 0, 0)" stroke-linecap="square" stroke-miterlimit="10" pointer-events="none"/><path d="M 71 356 M 221 356 M 221 386 M 71 386" fill="none" stroke="rgb(0, 0, 0)" stroke-linecap="square" stroke-miterlimit="10" pointer-events="none"/><g fill="rgb(0, 0, 0)" font-family="Helvetica" pointer-events="none" clip-path="url(#mx-clip-77-356-144-30-0)" font-size="12px"><text x="78.5" y="375.5">Class</text></g><path d="M 484 379 L 511 379 L 511 571 L 491 571" fill="none" stroke="rgb(0, 0, 0)" stroke-miterlimit="10" pointer-events="none"/><path d="M 484 383 L 492 379 L 484 375" fill="none" stroke="rgb(0, 0, 0)" stroke-miterlimit="10" pointer-events="none"/><path d="M 491 575 L 499 571 L 491 567" fill="none" stroke="rgb(0, 0, 0)" stroke-miterlimit="10" pointer-events="none"/><path d="M 304 409 L 262.54 409 L 262.54 481 L 221 481" fill="none" stroke="rgb(0, 0, 0)" stroke-miterlimit="10" pointer-events="none"/><path d="M 304 405 L 296 409 L 304 413" fill="none" stroke="rgb(0, 0, 0)" stroke-miterlimit="10" pointer-events="none"/><path d="M 221 485 L 229 481 L 221 477" fill="none" stroke="rgb(0, 0, 0)" stroke-miterlimit="10" pointer-events="none"/><path d="M 581 361 L 536.08 361 L 536.08 571 L 491 571" fill="none" stroke="rgb(0, 0, 0)" stroke-miterlimit="10" pointer-events="none"/><path d="M 581 357 L 573 361 L 581 365" fill="none" stroke="rgb(0, 0, 0)" stroke-miterlimit="10" pointer-events="none"/><path d="M 491 575 L 499 571 L 491 567" fill="none" stroke="rgb(0, 0, 0)" stroke-miterlimit="10" pointer-events="none"/><path d="M 778 271 L 798.08 271 L 798.08 121 L 778 121" fill="none" stroke="rgb(0, 0, 0)" stroke-miterlimit="10" pointer-events="none"/><path d="M 782 267 L 782 275 M 786 267 L 786 275" fill="none" stroke="rgb(0, 0, 0)" stroke-miterlimit="10" pointer-events="none"/><path d="M 778 125 L 786 121 L 778 117" fill="none" stroke="rgb(0, 0, 0)" stroke-miterlimit="10" pointer-events="none"/><path d="M 821 141 L 791 141 L 791 121 L 778 121" fill="none" stroke="rgb(0, 0, 0)" stroke-miterlimit="10" pointer-events="none"/><path d="M 817 145 L 817 137 M 813 145 L 813 137" fill="none" stroke="rgb(0, 0, 0)" stroke-miterlimit="10" pointer-events="none"/><path d="M 778 125 L 786 121 L 778 117" fill="none" stroke="rgb(0, 0, 0)" stroke-miterlimit="10" pointer-events="none"/><path d="M 581 451 L 531 451 L 531 199 L 484 199" fill="none" stroke="rgb(0, 0, 0)" stroke-miterlimit="10" pointer-events="none"/><path d="M 581 447 L 573 451 L 581 455" fill="none" stroke="rgb(0, 0, 0)" stroke-miterlimit="10" pointer-events="none"/><path d="M 488 195 L 488 203 M 492 195 L 492 203" fill="none" stroke="rgb(0, 0, 0)" stroke-miterlimit="10" pointer-events="none"/><path d="M 581 421 L 521 421 L 521 206.08 L 484 206.08" fill="none" stroke="rgb(0, 0, 0)" stroke-miterlimit="10" pointer-events="none"/><path d="M 581 417 L 573 421 L 581 425" fill="none" stroke="rgb(0, 0, 0)" stroke-miterlimit="10" pointer-events="none"/><path d="M 484 210.08 L 492 206.08 L 484 202.08" fill="none" stroke="rgb(0, 0, 0)" stroke-miterlimit="10" pointer-events="none"/><path d="M 221 281 L 262.54 281 L 262.54 199 L 304 199" fill="none" stroke="rgb(0, 0, 0)" stroke-miterlimit="10" pointer-events="none"/><path d="M 225 277 L 225 285 M 229 277 L 229 285" fill="none" stroke="rgb(0, 0, 0)" stroke-miterlimit="10" pointer-events="none"/><path d="M 304 195 L 296 199 L 304 203" fill="none" stroke="rgb(0, 0, 0)" stroke-miterlimit="10" pointer-events="none"/><path d="M 41 311 L 21 311 L 21 61 L 41 61" fill="none" stroke="rgb(0, 0, 0)" stroke-miterlimit="10" pointer-events="none"/><path d="M 37 315 L 37 307 M 33 315 L 33 307" fill="none" stroke="rgb(0, 0, 0)" stroke-miterlimit="10" pointer-events="none"/><path d="M 41 57 L 33 61 L 41 65" fill="none" stroke="rgb(0, 0, 0)" stroke-miterlimit="10" pointer-events="none"/><path d="M 41 341 L 21 341 L 21 481 L 41 481" fill="none" stroke="rgb(0, 0, 0)" stroke-miterlimit="10" pointer-events="none"/><path d="M 37 345 L 37 337 M 33 345 L 33 337" fill="none" stroke="rgb(0, 0, 0)" stroke-miterlimit="10" pointer-events="none"/><path d="M 41 477 L 33 481 L 41 485" fill="none" stroke="rgb(0, 0, 0)" stroke-miterlimit="10" pointer-events="none"/></g></svg>